<svg width="21" height="21" viewBox="0 0 21 21" fill="none" xmlns="http://www.w3.org/2000/svg">
<path d="M19.7601 2.36576e-08H1.15347C0.516354 0.000382982 -0.000127629 0.517119 2.36576e-08 1.15449V19.7611C0.000382982 20.3982 0.517119 20.9147 1.15449 20.9146H11.1721V12.8265H8.45569V9.66073H11.1721V7.33094C11.1721 4.62918 12.8215 3.15863 15.2316 3.15863C16.386 3.15863 17.3779 3.24467 17.6671 3.28309V6.10689H16.0052C14.6939 6.10689 14.44 6.72996 14.44 7.64446V9.66073H17.5752L17.1667 12.8265H14.44V20.9146H19.7601C20.3976 20.9147 20.9144 20.3981 20.9146 19.7606C20.9146 19.7604 20.9146 19.7603 20.9146 19.7601V1.15347C20.9143 0.516354 20.3974 -0.000127629 19.7601 2.36576e-08Z" fill="#333333"/>
</svg>
