<svg width="67" height="39" viewBox="0 0 67 39" fill="none" xmlns="http://www.w3.org/2000/svg">
<path d="M59.8356 1.30896H7.16442C3.93036 1.30896 1.30859 3.9306 1.30859 7.16466V32.7698H11.1594H13.8326C13.8326 28.9751 16.8467 25.899 20.5647 25.899C24.2827 25.899 27.2967 28.9751 27.2967 32.7698H48.1994C48.1994 28.9751 51.2135 25.899 54.9315 25.899C58.6496 25.899 61.6637 28.9751 61.6637 32.7698H65.6914V7.16466C65.6914 3.9306 63.0696 1.30896 59.8356 1.30896Z" fill="white"/>
<path d="M60.3215 32.77L64.2287 32.7809H65.6914V19.1715H1.30859V32.7809H9.1739L13.9212 32.77H60.3215Z" fill="#ED3237"/>
<path d="M47.8945 7.28613H37.4258V32.7802H47.8945V7.28613Z" fill="#9F9F9F"/>
<path d="M32.1914 6.54285H24.8633V13.871H32.1914V6.54285Z" fill="#FFF21B"/>
<path d="M20.5645 37.1953C23.0217 37.1953 25.0137 35.2033 25.0137 32.7461C25.0137 30.2889 23.0217 28.2969 20.5645 28.2969C18.1072 28.2969 16.1152 30.2889 16.1152 32.7461C16.1152 35.2033 18.1072 37.1953 20.5645 37.1953Z" fill="#9F9F9F"/>
<path d="M54.9307 37.1953C57.3879 37.1953 59.3799 35.2033 59.3799 32.7461C59.3799 30.2889 57.3879 28.2969 54.9307 28.2969C52.4734 28.2969 50.4814 30.2889 50.4814 32.7461C50.4814 35.2033 52.4734 37.1953 54.9307 37.1953Z" fill="#9F9F9F"/>
<path d="M65.2988 7.27466H53.1289V19.0409H65.2007L65.2988 7.27466Z" fill="#FFF21B"/>
<path d="M19.6289 6.54285H12.3008V13.871H19.6289V6.54285Z" fill="#FFF21B"/>
<path d="M7.06641 6.54285H1.30859V13.871H7.06641V6.54285Z" fill="#FFF21B"/>
<path d="M20.5649 26.9883C17.39 26.9883 14.8071 29.5712 14.8071 32.7461C14.8071 35.921 17.39 38.5039 20.5649 38.5039C23.7399 38.5039 26.3228 35.921 26.3228 32.7461C26.3228 29.5712 23.7399 26.9883 20.5649 26.9883ZM20.5649 35.8867C18.8333 35.8867 17.4243 34.4778 17.4243 32.7461C17.4243 31.0144 18.8333 29.6055 20.5649 29.6055C22.2966 29.6055 23.7056 31.0144 23.7056 32.7461C23.7056 34.4778 22.2966 35.8867 20.5649 35.8867Z" fill="black"/>
<path d="M59.8355 0.000366211H53.1288C52.4061 0.000366211 51.8202 0.586224 51.8202 1.30896C51.8202 2.0317 52.4061 2.61755 53.1288 2.61755H59.8355C61.928 2.61755 63.6937 4.03869 64.2212 5.96624H53.1288C52.4061 5.96624 51.8202 6.5521 51.8202 7.27484V19.0411C51.8202 19.7638 52.4061 20.3497 53.1288 20.3497H64.3827V31.4614H60.543C59.9576 28.9033 57.6646 26.9883 54.9315 26.9883C52.1984 26.9883 49.9055 28.9031 49.32 31.4614H49.203V7.28635C49.203 6.56362 48.6171 5.97776 47.8944 5.97776H37.4257C36.7029 5.97776 36.1171 6.56362 36.1171 7.28635V17.7972H11.8208C11.0981 17.7972 10.5122 18.3831 10.5122 19.1058C10.5122 19.8286 11.0981 20.4144 11.8208 20.4144H36.1171V31.4612H29.4432C28.7205 31.4612 28.1346 32.047 28.1346 32.7698C28.1346 33.4925 28.7205 34.0784 29.4432 34.0784H49.331C49.934 36.6126 52.2153 38.5036 54.9315 38.5036C57.6478 38.5036 59.929 36.6126 60.532 34.0784H65.6913C66.414 34.0784 66.9999 33.4925 66.9999 32.7698V7.16479C66.9999 3.21427 63.786 0.000366211 59.8355 0.000366211ZM38.7343 8.59495H46.5858V18.7249H45.7587C45.0359 18.7249 44.4501 19.3108 44.4501 20.0335C44.4501 20.7562 45.0359 21.3421 45.7587 21.3421H46.5858V31.4612H38.7343V8.59495ZM54.9314 35.8866C53.1997 35.8866 51.7907 34.4776 51.7907 32.746C51.7907 31.0143 53.1997 29.6053 54.9314 29.6053C56.663 29.6053 58.072 31.0143 58.072 32.746C58.072 34.4776 56.6632 35.8866 54.9314 35.8866ZM54.4374 17.7323V8.5833H64.3827V17.7323H54.4374Z" fill="black"/>
<path d="M47.8945 2.61719C48.2387 2.61719 48.5763 2.47717 48.8197 2.23377C49.0631 1.99037 49.2031 1.65275 49.2031 1.30859C49.2031 0.964434 49.0631 0.626816 48.8197 0.383418C48.5763 0.14002 48.2387 0 47.8945 0C47.5504 0 47.2128 0.14002 46.9694 0.383418C46.726 0.626816 46.5859 0.964434 46.5859 1.30859C46.5859 1.65275 46.726 1.99037 46.9694 2.23377C47.2128 2.47717 47.5504 2.61719 47.8945 2.61719Z" fill="black"/>
<path d="M11.1594 31.4617H2.61719V15.1804H7.06641C7.78914 15.1804 8.375 14.5946 8.375 13.8718V6.5437C8.375 5.82096 7.78914 5.23511 7.06641 5.23511H3.04824C3.77555 3.69018 5.34665 2.61792 7.16429 2.61792H42.6602C43.3829 2.61792 43.9688 2.03206 43.9688 1.30933C43.9688 0.58659 43.3829 0.000732422 42.6602 0.000732422H7.16442C3.57704 0.000732422 0.597504 2.65129 0.0800859 6.09682C0.0291816 6.23644 0 6.38654 0 6.5437V32.7701C0 33.4929 0.585857 34.0787 1.30859 34.0787H11.1594C11.8822 34.0787 12.468 33.4929 12.468 32.7701C12.468 32.0474 11.8822 31.4617 11.1594 31.4617ZM5.75781 12.5632H2.61719V7.85229H5.75781V12.5632Z" fill="black"/>
<path d="M7.06641 17.7969C6.72225 17.7969 6.38463 17.9369 6.14123 18.1803C5.89783 18.4237 5.75781 18.7613 5.75781 19.1055C5.75781 19.4509 5.89783 19.7872 6.14123 20.0306C6.38463 20.2754 6.72225 20.4141 7.06641 20.4141C7.41057 20.4141 7.74818 20.2754 7.99158 20.0306C8.23498 19.7872 8.375 19.4496 8.375 19.1055C8.375 18.7613 8.23498 18.4237 7.99158 18.1803C7.74818 17.9369 7.41057 17.7969 7.06641 17.7969Z" fill="black"/>
<path d="M24.8633 5.23474C24.1405 5.23474 23.5547 5.8206 23.5547 6.54333V13.8715C23.5547 14.5942 24.1405 15.1801 24.8633 15.1801H32.1914C32.9141 15.1801 33.5 14.5942 33.5 13.8715V6.54333C33.5 5.8206 32.9141 5.23474 32.1914 5.23474H24.8633ZM30.8828 12.5629H26.1719V7.85193H30.8828V12.5629Z" fill="black"/>
<path d="M12.3008 5.23474C11.578 5.23474 10.9922 5.8206 10.9922 6.54333V13.8715C10.9922 14.5942 11.578 15.1801 12.3008 15.1801H19.6289C20.3516 15.1801 20.9375 14.5942 20.9375 13.8715V6.54333C20.9375 5.8206 20.3516 5.23474 19.6289 5.23474H12.3008ZM18.3203 12.5629H13.6094V7.85193H18.3203V12.5629Z" fill="black"/>
</svg>
