<svg width="12" height="16" viewBox="0 0 12 16" fill="none" xmlns="http://www.w3.org/2000/svg">
<path d="M5.625 0C2.52338 0 0 2.52338 0 5.625C0 6.67294 0.290281 7.69563 0.839656 8.58288L5.30481 15.7784C5.39034 15.9163 5.54103 16 5.70309 16C5.70434 16 5.70556 16 5.70681 16C5.87028 15.9987 6.02128 15.9124 6.10525 15.7721L10.4566 8.50688C10.9757 7.63838 11.25 6.64184 11.25 5.625C11.25 2.52338 8.72663 0 5.625 0ZM9.65206 8.02556L5.696 14.6308L1.63647 8.08894C1.17919 7.35044 0.93125 6.49844 0.93125 5.625C0.93125 3.04031 3.04031 0.93125 5.625 0.93125C8.20969 0.93125 10.3156 3.04031 10.3156 5.625C10.3156 6.47253 10.084 7.30275 9.65206 8.02556Z" fill="#333333"/>
<path d="M5.625 2.8125C4.07419 2.8125 2.8125 4.07419 2.8125 5.625C2.8125 7.16591 4.05366 8.4375 5.625 8.4375C7.21572 8.4375 8.4375 7.14897 8.4375 5.625C8.4375 4.07419 7.17581 2.8125 5.625 2.8125ZM5.625 7.50625C4.58572 7.50625 3.74375 6.66147 3.74375 5.625C3.74375 4.59113 4.59113 3.74375 5.625 3.74375C6.65887 3.74375 7.50313 4.59113 7.50313 5.625C7.50313 6.64634 6.68075 7.50625 5.625 7.50625Z" fill="#333333"/>
</svg>
