<svg width="16" height="16" viewBox="0 0 16 16" fill="none" xmlns="http://www.w3.org/2000/svg">
<path d="M15.588 11.801L13.599 9.81201C13.0506 9.26366 12.1583 9.26366 11.61 9.81201L10.7059 10.7161C10.2904 11.1315 9.61442 11.1314 9.19914 10.7163L5.28039 6.79416C4.86398 6.37775 4.86392 5.70379 5.28039 5.28732C5.42602 5.14169 5.84417 4.72353 6.18448 4.38322C6.73045 3.83728 6.73808 2.94775 6.18395 2.39369L4.19545 0.411438C3.64708 -0.136906 2.75479 -0.136906 2.20789 0.41C1.79864 0.815688 1.66664 0.946563 1.48314 1.12847C-0.494364 3.10594 -0.494364 6.32354 1.48304 8.30094L7.69217 14.5133C9.6743 16.4955 12.8824 16.4956 14.8647 14.5133L15.588 13.79C16.1364 13.2417 16.1364 12.3494 15.588 11.801ZM2.86945 1.07444C3.05223 0.891657 3.34961 0.891626 3.53298 1.07494L5.52148 3.05719C5.7047 3.24041 5.7047 3.53694 5.52148 3.72019L5.18995 4.05169L2.53964 1.40138L2.86945 1.07444ZM8.3553 13.8504L2.14614 7.63797C0.616199 6.10804 0.532106 3.70569 1.88751 2.07528L4.53014 4.71791C3.83576 5.50507 3.8647 6.70454 4.61723 7.45707L8.53586 11.379L8.53599 11.3791C9.28771 12.1309 10.4871 12.1617 11.2752 11.4664L13.9179 14.109C12.2927 15.4621 9.89577 15.3909 8.3553 13.8504ZM14.9251 13.127L14.5935 13.4586L11.9415 10.8065L12.273 10.475C12.4558 10.2922 12.7532 10.2922 12.936 10.475L14.925 12.464C15.1078 12.6469 15.1078 12.9443 14.9251 13.127Z" fill="#333333"/>
</svg>
