<svg width="15" height="11" viewBox="0 0 15 11" fill="none" xmlns="http://www.w3.org/2000/svg">
<path fill-rule="evenodd" clip-rule="evenodd" d="M2 0C0.895431 0 0 0.895433 0 2V8.92308C0 10.0276 0.895429 10.9231 2 10.9231H12.2C13.3046 10.9231 14.2 10.0276 14.2 8.92307V2C14.2 0.895431 13.3046 0 12.2 0H2ZM7.48799 5.93236L12.283 1.09231H1.917L6.71201 5.93236C6.92589 6.14824 7.27415 6.14824 7.48799 5.93236ZM1.09231 1.81192V9.0584L4.69863 5.45211L1.09231 1.81192ZM5.4674 6.22808L1.86468 9.83077H12.3353L8.73264 6.22808L8.264 6.70113C7.62238 7.34876 6.57773 7.34883 5.93604 6.70113L5.4674 6.22808ZM9.50137 5.45211L13.1077 9.05843V1.81192L9.50137 5.45211Z" fill="#333333"/>
</svg>
