<svg width="21" height="21" viewBox="0 0 21 21" fill="none" xmlns="http://www.w3.org/2000/svg">
<path d="M20.8614 6.15013C20.8124 5.03864 20.6327 4.27451 20.3752 3.61237C20.1096 2.90953 19.7009 2.28028 19.1655 1.75718C18.6424 1.22594 18.009 0.813142 17.3143 0.551673C16.6483 0.294194 15.8882 0.114453 14.7767 0.0654473C13.6569 0.0122913 13.3014 0 10.4613 0C7.62125 0 7.26576 0.0122913 6.15013 0.061297C5.03864 0.110303 4.2745 0.290203 3.61253 0.547522C2.90953 0.813142 2.28028 1.22179 1.75718 1.75718C1.22594 2.28028 0.813302 2.91368 0.551673 3.60838C0.294193 4.27451 0.114453 5.03449 0.0654472 6.14598C0.0122913 7.26576 0 7.62126 0 10.4613C0 13.3014 0.0122913 13.6569 0.061297 14.7726C0.110303 15.8841 0.290203 16.6482 0.547682 17.3103C0.813302 18.0132 1.22594 18.6424 1.75718 19.1655C2.28028 19.6968 2.91368 20.1096 3.60838 20.371C4.2745 20.6285 5.03449 20.8082 6.14614 20.8572C7.26161 20.9064 7.61726 20.9185 10.4574 20.9185C13.2974 20.9185 13.6529 20.9064 14.7686 20.8572C15.8801 20.8082 16.6442 20.6285 17.3062 20.371C18.712 19.8275 19.8235 18.716 20.367 17.3103C20.6243 16.6442 20.8042 15.8841 20.8533 14.7726C20.9023 13.6569 20.9146 13.3014 20.9146 10.4613C20.9146 7.62126 20.9104 7.26576 20.8614 6.15013ZM18.9776 14.6908C18.9326 15.7125 18.761 16.2641 18.618 16.6319C18.2665 17.5432 17.5432 18.2665 16.6319 18.618C16.2641 18.761 15.7085 18.9326 14.6908 18.9775C13.5875 19.0266 13.2566 19.0388 10.4655 19.0388C7.67441 19.0388 7.33935 19.0266 6.24 18.9775C5.21838 18.9326 4.66671 18.761 4.29893 18.618C3.84543 18.4504 3.43263 18.1848 3.09757 17.8374C2.75022 17.4982 2.4846 17.0896 2.31699 16.6361C2.17397 16.2683 2.00237 15.7125 1.95751 14.695C1.90835 13.5916 1.89621 13.2606 1.89621 10.4695C1.89621 7.6784 1.90835 7.34334 1.95751 6.24415C2.00237 5.22253 2.17397 4.67086 2.31699 4.30308C2.4846 3.84942 2.75022 3.43678 3.10172 3.10156C3.44077 2.75421 3.84942 2.48859 4.30308 2.32114C4.67086 2.17812 5.22668 2.00652 6.24415 1.9615C7.34749 1.9125 7.67856 1.90021 10.4695 1.90021C13.2647 1.90021 13.5956 1.9125 14.695 1.9615C15.7166 2.00652 16.2683 2.17812 16.6361 2.32114C17.0896 2.48859 17.5024 2.75421 17.8374 3.10156C18.1848 3.44077 18.4504 3.84942 18.618 4.30308C18.761 4.67086 18.9326 5.22652 18.9776 6.24415C19.0266 7.34749 19.0389 7.6784 19.0389 10.4695C19.0389 13.2606 19.0266 13.5875 18.9776 14.6908Z" fill="#333333"/>
<path d="M10.4611 5.08765C7.49443 5.08765 5.0874 7.49451 5.0874 10.4613C5.0874 13.4282 7.49443 15.835 10.4611 15.835C13.4279 15.835 15.8348 13.4282 15.8348 10.4613C15.8348 7.49451 13.4279 5.08765 10.4611 5.08765ZM10.4611 13.9471C8.53647 13.9471 6.97532 12.3861 6.97532 10.4613C6.97532 8.53656 8.53647 6.97556 10.4611 6.97556C12.3859 6.97556 13.9469 8.53656 13.9469 10.4613C13.9469 12.3861 12.3859 13.9471 10.4611 13.9471Z" fill="#333333"/>
<path d="M17.3022 4.87512C17.3022 5.5679 16.7404 6.12963 16.0475 6.12963C15.3547 6.12963 14.793 5.5679 14.793 4.87512C14.793 4.18217 15.3547 3.62061 16.0475 3.62061C16.7404 3.62061 17.3022 4.18217 17.3022 4.87512Z" fill="#333333"/>
</svg>
